<svg aria-hidden="true" style="position: absolute; width: 0; height: 0; overflow: hidden;" version="1.1" xmlns="http://www.w3.org/2000/svg" xmlns:xlink="http://www.w3.org/1999/xlink">
<defs>
<symbol id="icon-content_inventory" viewBox="0 0 32 32">
<title>content_inventory</title>
<path d="M26.28 3.765c0.522 0 0.953 0.418 1.009 0.953l0.006 0.116v21.39c0 0.551-0.396 1.005-0.904 1.063l-0.11 0.006h-2.75c0 1.040-0.843 1.882-1.882 1.882h-14.118c-1.040 0-1.882-0.843-1.882-1.882v-19.765c0-1.040 0.843-1.882 1.882-1.882h1.882v-0.813c0-0.551 0.396-1.005 0.904-1.063l0.11-0.006h15.853zM21.647 6.588h-14.118c-0.483 0-0.88 0.363-0.935 0.831l-0.006 0.11v19.765c0 0.483 0.363 0.88 0.831 0.935l0.11 0.006h14.118c0.483 0 0.88-0.363 0.935-0.831l0.006-0.11v-19.765c0-0.52-0.421-0.941-0.941-0.941zM26.28 4.567h-15.853c-0.12 0-0.221 0.088-0.247 0.206l-0.007 0.061-0 0.813h11.475c1.040 0 1.882 0.843 1.882 1.882v18.962l2.75 0.001c0.12 0 0.221-0.088 0.247-0.206l0.007-0.061v-21.39c0-0.147-0.114-0.267-0.254-0.267zM18.885 24.144c0.213 0 0.387 0.181 0.387 0.401 0 0.196-0.137 0.361-0.318 0.395l-0.070 0.006h-7.624c-0.214 0-0.387-0.181-0.387-0.401 0-0.196 0.137-0.361 0.318-0.395l0.070-0.006h7.624zM9.769 24.144c0.214 0 0.387 0.181 0.387 0.401 0 0.196-0.137 0.361-0.318 0.395l-0.070 0.006h-0.911c-0.214 0-0.387-0.181-0.387-0.401 0-0.196 0.137-0.361 0.318-0.395l0.070-0.006h0.911zM18.885 20.886c0.213 0 0.387 0.181 0.387 0.401 0 0.196-0.137 0.361-0.318 0.395l-0.070 0.006h-7.624c-0.214 0-0.387-0.181-0.387-0.401 0-0.196 0.137-0.361 0.318-0.395l0.070-0.006h7.624zM9.769 20.886c0.214 0 0.387 0.181 0.387 0.401 0 0.196-0.137 0.361-0.318 0.395l-0.070 0.006h-0.911c-0.214 0-0.387-0.181-0.387-0.401 0-0.196 0.137-0.361 0.318-0.395l0.070-0.006h0.911zM18.885 17.628c0.213 0 0.387 0.181 0.387 0.401 0 0.196-0.137 0.361-0.318 0.395l-0.070 0.006h-7.624c-0.214 0-0.387-0.181-0.387-0.401 0-0.196 0.137-0.361 0.318-0.395l0.070-0.006h7.624zM9.769 17.628c0.214 0 0.387 0.181 0.387 0.401 0 0.196-0.137 0.361-0.318 0.395l-0.070 0.006h-0.911c-0.214 0-0.387-0.181-0.387-0.401 0-0.196 0.137-0.361 0.318-0.395l0.070-0.006h0.911zM18.885 15.022c0.213 0 0.387 0.18 0.387 0.401 0 0.197-0.137 0.361-0.318 0.395l-0.070 0.006h-7.624c-0.214 0-0.387-0.18-0.387-0.401 0-0.197 0.137-0.361 0.318-0.395l0.070-0.006h7.624zM9.769 15.022c0.214 0 0.387 0.18 0.387 0.401 0 0.197-0.137 0.361-0.318 0.395l-0.070 0.006h-0.911c-0.214 0-0.387-0.18-0.387-0.401 0-0.197 0.137-0.361 0.318-0.395l0.070-0.006h0.911zM18.885 11.764c0.213 0 0.387 0.18 0.387 0.401 0 0.197-0.137 0.361-0.318 0.395l-0.070 0.006h-7.624c-0.214 0-0.387-0.18-0.387-0.401 0-0.197 0.137-0.361 0.318-0.395l0.070-0.006h7.624zM9.769 11.764c0.214 0 0.387 0.18 0.387 0.401 0 0.197-0.137 0.361-0.318 0.395l-0.070 0.006h-0.911c-0.214 0-0.387-0.18-0.387-0.401 0-0.197 0.137-0.361 0.318-0.395l0.070-0.006h0.911zM18.885 8.571c0.213 0 0.387 0.18 0.387 0.401 0 0.197-0.137 0.361-0.318 0.395l-0.070 0.006h-7.624c-0.214 0-0.387-0.18-0.387-0.401 0-0.197 0.137-0.361 0.318-0.395l0.070-0.006h7.624zM9.769 8.571c0.214 0 0.387 0.18 0.387 0.401 0 0.197-0.137 0.361-0.318 0.395l-0.070 0.006h-0.911c-0.214 0-0.387-0.18-0.387-0.401 0-0.197 0.137-0.361 0.318-0.395l0.070-0.006h0.911z"></path>
</symbol>
<symbol id="icon-aficionados" viewBox="0 0 32 32">
<title>aficionados</title>
<path d="M28.249 0.943c0.147-0.014 0.292 0.038 0.396 0.143v0l1.338 1.37c0.153 0.158 0.179 0.398 0.065 0.585v0l-1.46 2.433c-0.073 0.122-0.197 0.206-0.338 0.229s-0.286-0.016-0.395-0.108v0l-0.259-0.221-0.319 0.317 0.435 0.431-0.882 0.882-0.434-0.433-5.977 5.965c0.105 0.131 0.232 0.294 0.368 0.475l0.089 0.119c0.39 0.527 0.833 1.159 1.051 1.743 0.407 1.089 1.002 2.524 0.422 3.851-0.315 0.721-1.027 1.156-1.65 1.512-0.441 0.252-0.641 0.322-0.844 0.41v0l0.096 1.043c0.017 0.187-0.071 0.368-0.228 0.47s-0.357 0.107-0.519 0.014v0l-1.606-0.916c-0.589 0.319-1.065 0.663-1.31 1.035-0.259 0.391-0.319 0.823-0.266 1.333v0l1.339 1.348c0.129 0.13 0.178 0.321 0.127 0.497s-0.193 0.312-0.371 0.352v0l-1.162 0.268 0.104 0.603c0.019 0.119-0.005 0.24-0.067 0.343 0 0-0.321 0.536-0.777 1.125s-1.004 1.253-1.717 1.542c-1.812 0.735-3.928 0.396-5.639-0.313-2.279-0.944-4.204-2.78-5.491-4.85-0.91-1.464-1.606-3.293-1.384-5.103 0.154-1.252 0.879-2.4 1.791-3.196 0.427-0.372 1.006-0.57 1.51-0.73 0.355-0.113 0.495-0.141 0.651-0.179v0l0.325-0.819c0.060-0.154 0.19-0.268 0.349-0.307s0.327 0.004 0.45 0.113v0l0.814 0.708c0.768 0.087 1.3-0.038 1.724-0.342 0.396-0.284 0.716-0.761 1.036-1.274v0l-0.37-0.991c-0.051-0.138-0.040-0.292 0.032-0.421s0.195-0.22 0.338-0.25v0l0.629-0.134c0.051-0.173 0.092-0.329 0.244-0.708l0.074-0.183c0.204-0.495 0.459-1.032 0.917-1.381 1.107-0.844 2.616-1.004 3.9-0.79v0c0.793 0.132 1.605 0.647 2.288 1.11 0.445 0.302 0.823 0.59 1.032 0.755 1.694-1.734 3.412-3.506 5.196-5.387l-0.768-0.771 0.882-0.882 0.743 0.743 0.529-0.561-0.331-0.271c-0.128-0.104-0.193-0.265-0.174-0.428s0.12-0.305 0.268-0.378v0l3.013-1.491c0.054-0.027 0.113-0.044 0.173-0.050v0zM15.229 9.555c-1.068-0.179-2.33-0.009-3.123 0.596-0.085 0.065-0.209 0.235-0.336 0.45 0.1-0.124 0.213-0.242 0.346-0.326 0.431-0.275 0.906-0.294 1.318-0.312v0c0.353-0.015 0.715 0.037 1.052 0.147 0.54 0.177 1.359 0.717 1.359 0.717 0.092 0.050 0.152 0.154 0.155 0.27s-0.050 0.225-0.138 0.282c-0.088 0.057-0.197 0.053-0.283-0.010 0 0-0.868-0.538-1.246-0.662-0.284-0.091-0.584-0.134-0.876-0.12-0.405 0.018-0.794 0.049-1.077 0.23-0.070 0.045-0.245 0.242-0.37 0.414s-0.217 0.322-0.217 0.322c-0.056 0.092-0.151 0.143-0.248 0.133s-0.184-0.078-0.225-0.179l0.016 0.030c-0.132 0.365-0.207 0.648-0.207 0.648-0.049 0.185-0.198 0.327-0.385 0.365v0l-0.333 0.067 0.266 0.708c0.053 0.146 0.037 0.308-0.044 0.44-0.382 0.64-0.808 1.289-1.45 1.751s-1.505 0.691-2.56 0.536c-0.093-0.015-0.181-0.056-0.252-0.119v0l-0.437-0.38-0.155 0.387c-0.061 0.154-0.194 0.269-0.355 0.306 0 0-0.39 0.087-0.844 0.231s-0.982 0.379-1.154 0.529c-0.742 0.647-1.328 1.621-1.443 2.555-0.18 1.465 0.407 3.114 1.236 4.447 1.189 1.912 2.981 3.611 5.017 4.455 1.54 0.638 3.436 0.9 4.884 0.313 0.315-0.128 0.895-0.692 1.31-1.229 0.358-0.463 0.54-0.778 0.607-0.887v0l-0.155-0.864c-0.047-0.266 0.123-0.522 0.385-0.581v0l0.747-0.171-0.866-0.872c-0.074-0.075-0.124-0.171-0.141-0.276-0.116-0.779 0.032-1.534 0.444-2.16s1.061-1.123 1.902-1.527c0.148-0.072 0.323-0.067 0.466 0.015v0l1.043 0.596-0.038-0.425c-0.020-0.222 0.106-0.43 0.311-0.514 0 0 0.51-0.204 1.066-0.521s1.121-0.798 1.228-1.043c0.352-0.807-0.035-1.992-0.444-3.084v0c-0.137-0.373-0.543-1-0.91-1.498-0.134-0.181-0.263-0.347-0.372-0.485l-3.55 3.545c-0.186 0.189-0.49 0.196-0.683 0.015v0l-1.201-1.156c-0.094-0.089-0.148-0.211-0.151-0.339s0.046-0.253 0.136-0.345c1.254-1.279 2.499-2.544 3.754-3.825-0.202-0.157-0.518-0.395-0.884-0.643-0.637-0.432-1.45-0.872-1.894-0.946zM23.988 24.362c0.301 0 0.627 0.191 0.627 0.491s-0.312 0.666-0.613 0.666c-0.301 0-0.618-0.288-0.618-0.589s0.302-0.569 0.603-0.569zM12.807 18.826c0.197-0.009 0.423-0.002 0.646 0.113 0.347 0.179 0.527 0.459 0.61 0.741 0.081 0.282 0.077 0.578-0.046 0.847-0.175 0.384-0.554 0.642-0.951 0.826s-0.831 0.311-1.238 0.43c-0.406 0.12-0.78 0.24-1.040 0.374s-0.397 0.254-0.448 0.437c-0.048 0.174 0.014 0.44 0.18 0.67s0.426 0.415 0.646 0.48c-0.053-0.015 0.233-0.031 0.475-0.127s0.449-0.212 0.449-0.212c0.133-0.074 0.306-0.087 0.455-0.034s0.249 0.165 0.265 0.293c0.015 0.128-0.057 0.252-0.19 0.327 0 0-0.247 0.142-0.565 0.268s-0.704 0.302-1.202 0.155c-0.489-0.144-0.869-0.446-1.121-0.797-0.255-0.352-0.392-0.763-0.278-1.171 0.111-0.401 0.453-0.693 0.834-0.889s0.817-0.323 1.229-0.445c0.411-0.121 0.802-0.239 1.094-0.374s0.465-0.272 0.547-0.452c0.050-0.109 0.064-0.292 0.018-0.445-0.045-0.152-0.135-0.262-0.215-0.303l0.009 0.006c-0.012-0.001-0.032-0.005-0.060-0.006l-0.048-0c-0.090 0.004-0.218 0.027-0.341 0.056-0.246 0.056-0.457 0.134-0.457 0.134-0.148 0.057-0.323 0.048-0.46-0.025s-0.212-0.198-0.199-0.327c0.014-0.129 0.114-0.243 0.264-0.297 0 0 0.271-0.101 0.601-0.176 0.165-0.038 0.342-0.070 0.538-0.078zM8.583 16.248c0.319-0.070 0.649-0.012 0.953 0.128s0.592 0.377 0.745 0.763c0.099 0.249 0.078 0.483 0.041 0.68s-0.103 0.374-0.168 0.533c-0.131 0.319-0.281 0.57-0.281 0.57-0.083 0.138-0.224 0.215-0.369 0.201s-0.274-0.115-0.336-0.267c-0.063-0.151-0.050-0.33 0.033-0.468 0 0 0.119-0.194 0.216-0.432 0.049-0.119 0.096-0.25 0.112-0.34 0.010-0.054 0.008-0.090 0.009-0.102l0-0.004-0.023-0.043c-0.039-0.059-0.104-0.124-0.19-0.178l-0.092-0.050c-0.164-0.076-0.368-0.102-0.497-0.073-0.213 0.047-0.392 0.2-0.585 0.469s-0.376 0.638-0.569 1.029c-0.193 0.392-0.401 0.803-0.673 1.149-0.031 0.040-0.064 0.079-0.098 0.117l0.019 0.017 2.427 2.658c0.138 0.152 0.188 0.37 0.131 0.572s-0.214 0.355-0.409 0.401v0l-3.595 0.878c-0.198 0.048-0.404-0.021-0.539-0.181s-0.176-0.384-0.107-0.585v0l1.066-3.206-0.009 0.001c-0.421 0.029-0.816-0.149-1.151-0.419l-0.123-0.105c-0.359-0.327-0.643-0.762-0.737-1.287-0.096-0.534 0.151-0.889 0.336-1.186s0.377-0.524 0.377-0.524c0.102-0.12 0.251-0.168 0.392-0.127s0.253 0.165 0.292 0.326c0.040 0.161 0.002 0.334-0.1 0.454 0 0-0.155 0.188-0.297 0.414s-0.2 0.507-0.208 0.45c0.042 0.236 0.214 0.54 0.449 0.754s0.519 0.327 0.721 0.312c0.213-0.015 0.374-0.121 0.561-0.359s0.37-0.596 0.561-0.983c0.191-0.387 0.388-0.803 0.649-1.167s0.611-0.691 1.065-0.79v0zM6.548 20.903l-0.924 2.636 2.609-0.703-1.686-1.933zM26.152 21.184c0.269-0.028 0.525 0.121 0.634 0.368 0.031 0.071 0.048 0.146 0.052 0.22l-0.001-0.006 0.021-0.092c0.075-0.242 0.289-0.415 0.542-0.437v0c0.166-0.015 0.332 0.038 0.459 0.147v0l0.57 0.478c0.194 0.134 0.296 0.365 0.264 0.599s-0.194 0.428-0.417 0.504c-0.223 0.076-0.47 0.019-0.637-0.147v0l-0.579-0.478c-0.141-0.115-0.222-0.283-0.229-0.459-0.016 0.146-0.086 0.284-0.201 0.386v0l-0.653 0.616c-0.163 0.153-0.394 0.207-0.608 0.143s-0.377-0.238-0.427-0.455c-0.051-0.217 0.018-0.445 0.18-0.598v0l0.653-0.616c0.102-0.1 0.235-0.161 0.377-0.175zM21.164 21.539c0.301 0 0.627 0.191 0.627 0.491s-0.312 0.666-0.613 0.666c-0.301 0-0.618-0.288-0.618-0.589s0.302-0.569 0.603-0.569zM25.538 19.351c0.168-0.012 0.334 0.044 0.46 0.156v0l0.597 0.515c0.169 0.146 0.247 0.371 0.206 0.591s-0.198 0.4-0.409 0.473c-0.211 0.073-0.445 0.029-0.614-0.118v0l-0.597-0.515c-0.198-0.163-0.277-0.43-0.197-0.674s0.3-0.414 0.556-0.429zM27.926 19.375c0.267-0.036 0.527 0.104 0.644 0.346s0.065 0.533-0.13 0.72v0l-0.478 0.478c-0.158 0.158-0.387 0.219-0.603 0.161s-0.384-0.226-0.441-0.441c-0.058-0.215 0.004-0.445 0.161-0.603v0l0.478-0.478c0.098-0.101 0.228-0.166 0.368-0.184zM28.192 2.014l-2.021 1.007 0.151 0.121c0.105 0.084 0.171 0.208 0.18 0.342s-0.038 0.266-0.13 0.364c-3.937 4.217-7.472 7.762-11.082 11.443v0l0.511 0.492 8.492-8.483-0.206-0.2 0.873-0.892 0.215 0.21 2.046-2.043c0.157-0.157 0.397-0.187 0.585-0.082l0.077 0.053 0.165 0.136 0.971-1.619-0.827-0.849zM7.056 9.304c0.301 0 0.618 0.288 0.618 0.589s-0.302 0.569-0.603 0.569c-0.301 0-0.627-0.191-0.627-0.491s0.312-0.666 0.613-0.666zM7.024 3.138c0.179-0.014 0.355 0.049 0.483 0.174s0.197 0.299 0.188 0.478v0l-0.028 0.892c0.011 0.234-0.11 0.454-0.313 0.571l0.021-0.016c0.046 0.027 0.089 0.060 0.127 0.098 0.12 0.12 0.185 0.283 0.182 0.452v0 0.671c0 0.345-0.28 0.625-0.625 0.625s-0.625-0.28-0.625-0.625v0-0.671c-0-0.003-0-0.006-0-0.009l-0.641 0.055c-0.222 0.021-0.439-0.079-0.567-0.261s-0.15-0.42-0.055-0.622c0.094-0.202 0.29-0.339 0.513-0.357v0l0.735-0.064 0.012-0.003 0.025-0.781c0.006-0.286 0.206-0.527 0.477-0.592zM22.012 4.294l0.993 0.8-0.781 0.965-0.993-0.8 0.781-0.965zM9.292 4.528c0.227-0.026 0.45 0.074 0.581 0.262s0.149 0.431 0.047 0.635c-0.102 0.204-0.308 0.336-0.536 0.344v0l-0.79 0.055c-0.229 0.027-0.453-0.074-0.585-0.263s-0.148-0.435-0.043-0.64c0.105-0.205 0.314-0.335 0.545-0.338v0zM11.762 1.774c0.301 0 0.618 0.288 0.618 0.589s-0.302 0.569-0.603 0.569c-0.301 0-0.627-0.191-0.627-0.491s0.312-0.666 0.613-0.666z"></path>
</symbol>
<symbol id="icon-casual_art" viewBox="0 0 32 32">
<title>casual_art</title>
<path d="M24.963 4.776c0 0.241-0.261 0.393-0.502 0.393s-0.482-0.215-0.482-0.455c0-0.241 0.253-0.471 0.494-0.471s0.49 0.293 0.49 0.533z"></path>
<path d="M23.080 6.658c0 0.241-0.261 0.393-0.502 0.393s-0.482-0.215-0.482-0.455c0-0.241 0.253-0.471 0.494-0.471s0.49 0.293 0.49 0.533z"></path>
<path d="M26.059 5.829c-0.203 0.007-0.381 0.137-0.451 0.327s-0.016 0.404 0.134 0.54l0.522 0.493c0.127 0.136 0.32 0.19 0.499 0.139s0.315-0.197 0.353-0.38c0.037-0.183-0.030-0.371-0.175-0.488l-0.515-0.493c-0.098-0.095-0.231-0.146-0.368-0.14l0-0z"></path>
<path d="M28.448 5.896c-0.113 0.003-0.222 0.045-0.309 0.118l-0.456 0.382c-0.138 0.113-0.205 0.291-0.176 0.467s0.149 0.323 0.316 0.386c0.167 0.063 0.355 0.032 0.492-0.081l0.463-0.382c0.171-0.134 0.235-0.363 0.16-0.566s-0.274-0.334-0.491-0.324l-0-0z"></path>
<path d="M27.974 7.766c-0.192 0.020-0.355 0.15-0.418 0.333s-0.015 0.385 0.124 0.52l0.382 0.382c0.121 0.143 0.312 0.206 0.494 0.164s0.325-0.184 0.37-0.366c0.045-0.182-0.017-0.374-0.158-0.496l-0.382-0.382c-0.106-0.113-0.258-0.17-0.412-0.154l-0-0z"></path>
<path d="M26.576 7.759c-0.114 0.005-0.223 0.049-0.309 0.125l-0.471 0.412c-0.142 0.114-0.211 0.298-0.178 0.478s0.161 0.327 0.335 0.384c0.174 0.057 0.364 0.014 0.497-0.111l0.471-0.412c0.161-0.138 0.216-0.363 0.138-0.56s-0.272-0.323-0.484-0.315l-0 0z"></path>
<path d="M8.575 2.447l0.106 0.001c0.275 0.025 0.474 0.23 0.59 0.404 0.131 0.196 0.209 0.399 0.26 0.566 0.112 0.363 0.061 0.665 0.027 0.934s-0.085 0.493-0.085 0.493c-0.054 0.224-0.237 0.377-0.443 0.368v0l-3.614-0.096c-0.204-0.004-0.379-0.165-0.423-0.39 0 0-0.045-0.223-0.072-0.5s-0.070-0.591 0.078-0.963c0.146-0.367 0.411-0.74 0.879-0.794 0.011-0 0.022-0 0.033 0v0l0.56-0.015c0.61-0.011 1.226 0.063 2.103-0.008l-0-0zM8.043 3.138c-0.526 0.035-0.895-0.002-1.261 0.004l-0.336 0.008h-0.020c-0.281 0.027-0.44 0.214-0.527 0.397-0.089 0.186-0.063 0.343-0.047 0.482s0.043 0.25 0.043 0.25 0.132 0.193 0.254 0.195l2.168 0.048c0.123 0.004 0.233-0.072 0.266-0.184 0 0 0.030-0.112 0.051-0.246s0.051-0.285-0.016-0.467c-0.031-0.084-0.078-0.185-0.156-0.283s-0.219-0.215-0.418-0.202z"></path>
<path d="M5.894 4.707c-0-0-0.331 0.072-0.331 0.073s-0.114 0.119-0.115 0.119c-0 0.001-0.054 0.104-0.054 0.106-0.001 0.002-0.017 0.051-0.021 0.066-0.007 0.030-0.010 0.055-0.014 0.079-0.007 0.048-0.014 0.105-0.021 0.178-0.014 0.147-0.031 0.352-0.047 0.608-0.035 0.511-0.075 1.212-0.115 1.995-0.080 1.565-0.152 3.439-0.135 4.696 0.002 0.126-0.040 0.229-0.155 0.37s-0.303 0.299-0.52 0.469c-0.434 0.34-1.028 0.729-1.176 1.44-0.898 4.316 0.196 9.347-0.25 13.204-0.055 0.472 0.218 0.857 0.514 1.116s0.646 0.439 0.966 0.548c1.887 0.641 4.064 0.201 5.872 0.139 0.505-0.017 0.913-0.297 1.209-0.634s0.499-0.746 0.561-1.169c0.235-1.609 0.188-4.082 0.115-6.176-0.037-1.047-0.081-1.994-0.101-2.675-0.010-0.34-0.017-0.618-0.014-0.793 0.001-0.056 0.003-0.075 0.007-0.105 0.072-0.14 0.063-0.307-0.023-0.439s-0.236-0.211-0.396-0.208c-0.002 0-0.214 0.052-0.216 0.053s-0.134 0.097-0.135 0.099c-0.002 0.002-0.047 0.062-0.061 0.086s-0.028 0.048-0.035 0.066c-0.028 0.073-0.035 0.109-0.040 0.152-0.014 0.086-0.010 0.172-0.014 0.277-0.003 0.21-0.003 0.492 0.007 0.839 0.021 0.693 0.065 1.641 0.101 2.682 0.073 2.082 0.111 4.551-0.101 6.011-0.031 0.214-0.168 0.504-0.351 0.713s-0.394 0.325-0.547 0.33c-1.917 0.066-3.991 0.431-5.534-0.092-0.211-0.072-0.482-0.217-0.655-0.37s-0.225-0.269-0.216-0.343c0.474-4.096-0.603-9.095 0.237-13.131 0.055-0.265 0.402-0.565 0.851-0.918 0.225-0.177 0.462-0.37 0.662-0.614s0.363-0.566 0.358-0.938c-0.017-1.213 0.049-3.081 0.128-4.637 0.039-0.778 0.087-1.478 0.122-1.982 0.017-0.252 0.028-0.452 0.040-0.588 0.003-0.047 0.003-0.077 0.007-0.106 0-0.002 0.007-0.003 0.007-0.007 0-0.002 0-0.005 0-0.007 0.001-0.007-0.001-0.027 0-0.034 0 0 0.007-0.007 0.007-0.007-0.001 0.003-0.003 0.027-0.007 0.040 0.042-0.126 0.024-0.263-0.047-0.375s-0.19-0.188-0.324-0.206l0.002 0.001z"></path>
<path d="M8.846 4.709c-0.272 0.034-0.462 0.261-0.426 0.508l0.993 7.521c0.006 0.171 0.117 0.325 0.288 0.397s0.372 0.050 0.52-0.056c0.148-0.107 0.216-0.28 0.177-0.447l-0.993-7.521c-0.014-0.121-0.082-0.232-0.187-0.307s-0.239-0.109-0.372-0.094v-0z"></path>
<path d="M9.326 7.798l-3.679 0.353 0.086 0.993 3.679-0.353z"></path>
<path d="M5.511 16.044c-0.96 0.072-1.746 0.224-1.746 0.224l0.158 0.851c0 0 0.745-0.143 1.652-0.211s1.987-0.029 2.496 0.205c0.539 0.249 1.050 0.815 1.21 1.376 0.453 1.584-0.034 3.664 0.113 5.549 0.013 0.172-0.074 0.377-0.277 0.595s-0.501 0.426-0.763 0.557c-0.498 0.249-1.574 0.322-2.477 0.282s-1.645-0.16-1.645-0.16l-0.132 0.858c0 0 0.789 0.124 1.746 0.166s2.069 0.035 2.881-0.371c0.338-0.169 0.708-0.413 1.009-0.736s0.55-0.748 0.511-1.255c-0.13-1.666 0.403-3.808-0.145-5.722-0.244-0.852-0.896-1.567-1.677-1.927-0.827-0.381-1.952-0.354-2.912-0.282l0-0z"></path>
<path d="M7.14 17.322c-0.1 0.010-0.185 0.079-0.214 0.176s0.003 0.201 0.082 0.265l0.721 0.618c0.068 0.060 0.163 0.078 0.248 0.048s0.148-0.104 0.163-0.193c0.016-0.089-0.018-0.18-0.088-0.237l-0.728-0.61c-0.050-0.046-0.116-0.070-0.184-0.066l0 0z"></path>
<path d="M6.518 17.639c-0.098 0.010-0.181 0.077-0.211 0.171s-0.002 0.197 0.072 0.262l1.963 1.868c0.064 0.062 0.157 0.084 0.242 0.060s0.152-0.094 0.173-0.18c0.021-0.087-0.005-0.178-0.070-0.24l-1.963-1.868c-0.054-0.055-0.13-0.082-0.206-0.073l-0-0z"></path>
<path d="M6.651 18.623c-0.092 0.015-0.168 0.079-0.197 0.167s-0.007 0.185 0.057 0.252l1.669 1.787c0.095 0.102 0.255 0.107 0.357 0.011s0.107-0.255 0.011-0.357l-1.676-1.779c-0.055-0.062-0.138-0.093-0.221-0.081l-0 0z"></path>
<path d="M6.718 19.728c-0.104 0.002-0.197 0.068-0.231 0.167s-0.004 0.208 0.077 0.274l1.603 1.449c0.066 0.060 0.159 0.081 0.244 0.055s0.15-0.097 0.169-0.184c0.019-0.087-0.009-0.178-0.075-0.238l-1.61-1.456c-0.048-0.044-0.111-0.068-0.177-0.066l0 0z"></path>
<path d="M7.122 21.088c-0.098 0.015-0.178 0.086-0.203 0.182s0.008 0.197 0.086 0.259l0.728 0.618c0.068 0.060 0.163 0.078 0.249 0.048s0.148-0.104 0.164-0.193c0.015-0.089-0.018-0.18-0.089-0.237l-0.728-0.618c-0.056-0.050-0.132-0.071-0.206-0.059v-0z"></path>
<path d="M12.354 12.235c0 0-0.346 0.158-0.728 0.398s-0.822 0.522-1.032 1.018c-0.386 0.908-0.337 2.094 0.351 2.89 0.58 0.672 1.555 0.756 2.442 0.678v9.962c-0.108 0.069-0.176 0.1-0.357 0.248-0.292 0.238-0.662 0.516-0.708 1.044-0.030 0.361 0.075 0.711 0.265 1.024s0.517 0.636 0.986 0.62c3.943-0.145 9.187-0.655 12.744-0.118 0.457 0.069 0.794-0.223 0.993-0.509s0.317-0.612 0.298-0.966c-0.027-0.508-0.373-0.758-0.635-0.972-0.147-0.12-0.186-0.139-0.285-0.202l0.027-2.029c0.097 0.003 0.094 0.003 0.212 0.007 0.383 0.007 0.828 0.002 1.211-0.104 0.652-0.181 1.308-0.503 1.806-1.018 0.439-0.454 0.999-1.089 0.933-1.918-0.124-1.562 0.286-3.502 0.159-5.31-0.041-0.58-0.297-1.175-0.688-1.664s-0.951-0.896-1.628-0.855c-2.406 0.146-5.654-0.467-8.311-0.098-0.327 0.045-0.567 0.248-0.728 0.444s-0.261 0.403-0.337 0.587c-0.573 1.371-0.057 2.815-0.172 3.895-0.010 0.081-0.070 0.221-0.152 0.32s-0.168 0.14-0.199 0.144c-0.034 0.003-0.141-0.023-0.245-0.104-0.104-0.082-0.187-0.209-0.212-0.287-0.154-0.489-0.114-1.136-0.034-1.82 0.081-0.684 0.2-1.396 0.060-2.081-0.053-0.258-0.171-0.507-0.357-0.724s-0.478-0.432-0.86-0.391c-0.953 0.1-1.406-0.017-1.959 0.235-0.583 0.267-0.808 0.818-1.012 1.226s-0.434 0.451-0.626 0.51c-0.617 0.192-1.534 0.132-1.948-0.347-0.385-0.446-0.459-1.38-0.205-1.977 0.041-0.097 0.362-0.408 0.688-0.613s0.629-0.346 0.629-0.346l-0.384-0.797zM17.264 15.223c-0.030 0.003 0.010-0.003 0.086 0.085 0.075 0.088 0.148 0.241 0.165 0.326 0.093 0.453 0.010 1.1-0.073 1.801s-0.17 1.459 0.060 2.186c0.091 0.29 0.274 0.531 0.509 0.718s0.545 0.329 0.9 0.294c0.351-0.036 0.612-0.236 0.801-0.463s0.319-0.493 0.351-0.789c0.146-1.371-0.293-2.693 0.106-3.647 0.057-0.135 0.136-0.279 0.212-0.372s0.132-0.115 0.152-0.118c2.413-0.335 5.646 0.256 8.245 0.098 0.262-0.017 0.588 0.173 0.867 0.522s0.472 0.828 0.496 1.174c0.114 1.625-0.298 3.559-0.159 5.317 0.027 0.35-0.3 0.844-0.688 1.246-0.351 0.363-0.871 0.628-1.403 0.776-0.177 0.049-0.604 0.076-0.953 0.072-0.349-0.003-0.629-0.027-0.629-0.027-0.259-0.023-0.484 0.174-0.49 0.431l-0.040 2.714c-0.001 0.159 0.085 0.306 0.225 0.385 0 0 0.199 0.118 0.397 0.281s0.314 0.401 0.311 0.339c-0 0.002-0 0.003 0 0.007 0.003 0.070-0.055 0.28-0.146 0.411s-0.151 0.132-0.119 0.137c-3.767-0.57-9.017-0.039-12.909 0.104-0.002 0-0.091-0.027-0.185-0.183s-0.148-0.393-0.139-0.496c-0.002 0.023 0.161-0.25 0.39-0.437s0.457-0.326 0.457-0.326c0.135-0.079 0.218-0.223 0.219-0.378v-10.438c0.277-0.253 0.588-0.497 0.728-0.776 0.21-0.42 0.389-0.727 0.582-0.815 0.22-0.101 0.643-0.048 1.674-0.157l0 0.001z"></path>
<path d="M13.832 10.435c-0.886 0.26-1.464 0.955-1.582 1.673-0.078 0.472 0.18 0.879 0.401 1.224s0.452 0.615 0.452 0.615c0.102 0.117 0.273 0.182 0.449 0.169s0.33-0.101 0.405-0.231c0.074-0.13 0.058-0.282-0.044-0.399 0 0-0.199-0.234-0.386-0.526s-0.312-0.665-0.299-0.745c0.066-0.403 0.522-0.904 0.948-1.029 0.135-0.040 0.692 0.012 1.159 0.142s0.853 0.29 0.853 0.29c0.158 0.079 0.357 0.080 0.516 0.002s0.25-0.222 0.237-0.372c-0.014-0.15-0.13-0.282-0.301-0.34 0 0-0.442-0.186-0.984-0.337s-1.183-0.324-1.823-0.136l0-0z"></path>
<path d="M17.996 6.632c-1.128-0.203-2.289 0.318-3.060 1.069-0.36 0.351-0.501 0.821-0.621 1.231s-0.182 0.764-0.182 0.764c-0.044 0.168 0.010 0.346 0.139 0.46s0.313 0.146 0.473 0.082c0.161-0.064 0.271-0.214 0.286-0.387 0 0 0.058-0.309 0.162-0.663s0.292-0.748 0.378-0.832c0.578-0.563 1.539-0.955 2.263-0.825 0.781 0.14 1.652 0.856 1.905 1.59 0.078 0.229-0.003 0.9-0.182 1.454s-0.398 1.001-0.398 1.001c-0.071 0.147-0.058 0.322 0.033 0.457s0.249 0.212 0.412 0.2c0.163-0.012 0.307-0.11 0.379-0.258 0 0 0.246-0.501 0.446-1.123s0.408-1.353 0.176-2.029c-0.387-1.125-1.457-1.985-2.607-2.192l-0 0z"></path>
<path d="M20.123 8.471c-0.214 0.029-0.37 0.24-0.358 0.482s0.19 0.431 0.406 0.432c0 0 0.249-0.002 0.552 0.028 0.304 0.028 0.67 0.111 0.78 0.176 0.521 0.306 1.013 0.828 1.177 1.374 0.034 0.114 0.025 0.558-0.036 0.921-0.062 0.363-0.144 0.663-0.144 0.663-0.057 0.16-0.029 0.343 0.072 0.473s0.258 0.185 0.406 0.142c0.148-0.043 0.263-0.175 0.296-0.344 0 0 0.097-0.338 0.168-0.758s0.149-0.91 0.006-1.388c-0.262-0.875-0.909-1.509-1.567-1.896-0.345-0.203-0.742-0.245-1.087-0.278-0.345-0.031-0.63-0.028-0.63-0.028-0.014-0.001-0.028-0.001-0.042 0v0z"></path>
<path d="M23.779 11.305l-0.081 0.993c0 0 0.325 0.026 0.706 0.103s0.817 0.25 0.897 0.323c0.18 0.166 0.456 0.774 0.61 1.316s0.228 1.007 0.228 1.007l0.985-0.154c0 0-0.085-0.518-0.258-1.125s-0.385-1.305-0.89-1.772c-0.404-0.374-0.928-0.483-1.375-0.574s-0.824-0.117-0.824-0.117v-0z"></path>
<path d="M15.54 14.118l-0.055 0.878c-0.126-0.007-0.233-0.084-0.275-0.129s-0.047-0.062-0.048-0.064c-0.002-0.003 0.018 0.053 0.028 0.142 0.021 0.178 0.037 0.482 0.035 0.852-0.004 0.741-0.053 1.776-0.096 2.918-0.087 2.284-0.164 4.96 0.227 6.676 0.2 0.878 1.032 1.486 1.889 1.672 2.2 0.478 4.901 0.1 6.596-0.129 0.567-0.076 0.968-0.463 1.223-0.885s0.387-0.904 0.337-1.369c-0.356-3.306-0.138-10.298-0.138-10.298l-0.934-0.026c0 0-0.222 6.954 0.151 10.415 0.025 0.227-0.064 0.583-0.227 0.852s-0.377 0.423-0.543 0.446c-1.694 0.229-4.337 0.56-6.259 0.142-0.506-0.11-1.096-0.592-1.189-1.001-0.342-1.503-0.293-4.188-0.206-6.463 0.043-1.137 0.091-2.178 0.096-2.951 0.002-0.386-0.003-0.699-0.035-0.949-0.014-0.125-0.035-0.236-0.082-0.355-0.025-0.059-0.053-0.125-0.124-0.2s-0.211-0.166-0.371-0.174l-0 0z"></path>
<path d="M26.359 16.001c-0.272 0.014-0.482 0.23-0.477 0.488l0.060 6.493c-0 0.236 0.18 0.437 0.425 0.474 0 0 0.319 0.047 0.708 0.064 0.389 0.018 0.836 0.037 1.274-0.177 0.555-0.271 1.006-0.766 1.118-1.393 0.166-0.93 0.186-2.253 0.179-3.367-0.004-0.557-0.015-1.058-0.023-1.415-0.003-0.179-0.001-0.322 0-0.41 0-0.033-0.001-0.044 0-0.056 0.056-0.258-0.117-0.51-0.387-0.566-0 0-0.042 0-0.082 0v-0.015l-2.742-0.12c-0.017-0.001-0.035-0.001-0.052 0l0.001 0zM26.896 17.255l1.721 0.070c0.001 0.040-0.001 0.063 0 0.108 0.008 0.325 0.011 0.773 0.015 1.266 0.008 0.986-0.015 2.175-0.156 2.881-0.043 0.218-0.317 0.51-0.589 0.63-0.058 0.026-0.444 0.076-0.768 0.064-0.094-0.003-0.092-0.006-0.171-0.013l-0.053-5.005z"></path>
<path d="M20.793 21.843c0.343 0.026 0.67 0.469 0.636 0.812-0.034 0.346-0.443 0.704-0.79 0.68-0.331-0.023-0.675-0.415-0.658-0.746 0.019-0.367 0.445-0.776 0.811-0.746z"></path>
<path d="M22.238 15.461c-0.103 0.005-0.193 0.072-0.225 0.17s-0.002 0.206 0.078 0.271l0.654 0.559c0.065 0.070 0.164 0.096 0.256 0.068s0.158-0.106 0.173-0.2c0.014-0.094-0.026-0.189-0.105-0.243l-0.647-0.559c-0.050-0.046-0.116-0.070-0.184-0.066l0 0z"></path>
<path d="M22.243 15.469c-0.102 0.007-0.189 0.076-0.219 0.173s0.001 0.203 0.080 0.268l0.647 0.559c0.104 0.091 0.261 0.081 0.352-0.023s0.082-0.261-0.021-0.352l-0.654-0.566c-0.051-0.043-0.117-0.065-0.184-0.059l-0-0z"></path>
<path d="M22.231 16.402c-0.102 0.007-0.189 0.076-0.219 0.173s0.001 0.203 0.080 0.268l0.654 0.559c0.065 0.070 0.164 0.096 0.256 0.068s0.158-0.106 0.173-0.2c0.014-0.094-0.026-0.189-0.105-0.243l-0.654-0.566c-0.051-0.043-0.117-0.065-0.184-0.059v-0z"></path>
<path d="M22.218 17.353c-0.098 0.015-0.178 0.086-0.203 0.182s0.008 0.197 0.086 0.259l0.654 0.559c0.068 0.060 0.163 0.078 0.248 0.048s0.148-0.104 0.163-0.193c0.016-0.089-0.018-0.18-0.088-0.237l-0.654-0.559c-0.056-0.050-0.132-0.071-0.206-0.059l-0-0z"></path>
<path d="M22.231 18.284c-0.102 0.007-0.189 0.076-0.219 0.173s0.001 0.203 0.080 0.268l0.654 0.559c0.065 0.070 0.164 0.096 0.256 0.068s0.158-0.106 0.173-0.2c0.014-0.094-0.026-0.189-0.105-0.243l-0.654-0.559c-0.050-0.046-0.116-0.070-0.184-0.066l-0 0z"></path>
<path d="M22.21 19.227c-0.098 0.015-0.178 0.086-0.203 0.182s0.008 0.197 0.086 0.259l0.654 0.559c0.065 0.070 0.164 0.096 0.256 0.068s0.158-0.106 0.173-0.2c0.014-0.094-0.026-0.189-0.105-0.243l-0.654-0.566c-0.056-0.050-0.132-0.071-0.206-0.059v-0z"></path>
<path d="M22.215 20.177c-0.097 0.017-0.174 0.090-0.198 0.185s0.011 0.196 0.088 0.256l0.647 0.559c0.104 0.091 0.262 0.081 0.353-0.022s0.082-0.262-0.022-0.353l-0.654-0.566c-0.058-0.052-0.137-0.073-0.213-0.059l-0-0z"></path>
<path d="M22.213 21.12c-0.097 0.017-0.174 0.090-0.198 0.185s0.011 0.196 0.088 0.256l0.654 0.559c0.068 0.058 0.162 0.075 0.246 0.044s0.146-0.103 0.162-0.191c0.016-0.088-0.016-0.178-0.085-0.236l-0.654-0.559c-0.058-0.052-0.137-0.073-0.213-0.059l-0-0z"></path>
<path d="M22.231 22.049c-0.102 0.007-0.189 0.076-0.219 0.173s0.001 0.203 0.080 0.268l0.654 0.559c0.065 0.070 0.164 0.096 0.256 0.068s0.158-0.106 0.173-0.2c0.014-0.094-0.026-0.189-0.105-0.243l-0.654-0.566c-0.051-0.043-0.117-0.065-0.184-0.059l0-0z"></path>
<path d="M22.243 22.999c-0.102 0.007-0.189 0.076-0.219 0.173s0.001 0.203 0.080 0.268l0.647 0.559c0.104 0.091 0.261 0.081 0.352-0.023s0.082-0.261-0.021-0.352l-0.654-0.566c-0.051-0.043-0.117-0.065-0.184-0.059l-0-0z"></path>
<path d="M22.211 23.942c-0.097 0.017-0.174 0.090-0.198 0.185s0.011 0.196 0.088 0.256l0.654 0.559c0.068 0.060 0.163 0.078 0.249 0.048s0.148-0.104 0.164-0.193c0.015-0.089-0.018-0.18-0.089-0.237l-0.654-0.559c-0.058-0.052-0.137-0.073-0.213-0.059v-0z"></path>
<path d="M22.26 24.877c-0.106-0.001-0.201 0.064-0.237 0.163s-0.006 0.211 0.075 0.278l0.654 0.566c0.068 0.060 0.163 0.078 0.249 0.048s0.148-0.104 0.164-0.193c0.015-0.089-0.018-0.18-0.089-0.237l-0.654-0.559c-0.044-0.041-0.102-0.064-0.162-0.066l0 0z"></path>
<path d="M18.011 8.131c-0.528-0.091-1.066 0.14-1.426 0.478-0.078 0.057-0.117 0.153-0.099 0.248s0.089 0.171 0.183 0.195c0.094 0.024 0.193-0.008 0.254-0.083 0.254-0.238 0.684-0.4 1-0.346 0.344 0.059 0.732 0.364 0.838 0.662 0.026 0.073-0.001 0.364-0.081 0.603s-0.177 0.434-0.177 0.434c-0.055 0.080-0.059 0.185-0.009 0.269s0.144 0.131 0.24 0.12c0.097-0.010 0.179-0.076 0.21-0.168 0 0 0.113-0.224 0.206-0.5s0.197-0.604 0.081-0.926c-0.185-0.516-0.684-0.893-1.221-0.985l0 0z"></path>
<path d="M4.629 22.403c-0.072-0.001-0.14 0.029-0.188 0.083s-0.070 0.125-0.062 0.196l0.154 1.743c0.007 0.090 0.062 0.168 0.144 0.207s0.177 0.030 0.251-0.022c0.074-0.052 0.114-0.139 0.105-0.229l-0.154-1.743c-0.007-0.133-0.117-0.236-0.25-0.235h-0z"></path>
</symbol>
<symbol id="icon-information_architecture" viewBox="0 0 32 32">
<title>information_architecture</title>
<path d="M18.352 3.877h-5.482c-1.005 0-1.823 0.787-1.823 1.755v5.278c0 0.968 0.818 1.755 1.823 1.755h5.483c1.005 0 1.823-0.787 1.823-1.755v-5.278c0-0.968-0.818-1.755-1.823-1.755zM19.271 10.911c0 0.487-0.412 0.884-0.918 0.884h-5.483c-0.506 0-0.918-0.396-0.918-0.884v-5.278c0-0.488 0.412-0.884 0.918-0.884h5.483c0.506 0 0.918 0.397 0.918 0.884v5.278z"></path>
<path d="M25.205 20.148h0.002c0.25 0 0.452-0.195 0.452-0.435v-1.545c0-0.968-0.818-1.755-1.823-1.755h-7.771v-2.429c0-0.24-0.202-0.435-0.452-0.435h-0.002c-0.249 0-0.452 0.195-0.452 0.435v2.429h-7.771c-1.005 0-1.823 0.787-1.823 1.755v1.545c0 0.24 0.202 0.435 0.452 0.435h0.002c0.25 0 0.452-0.195 0.452-0.435v-1.545c0-0.488 0.411-0.884 0.918-0.884h7.771v2.429c0 0.24 0.202 0.435 0.452 0.435h0.002c0.249 0 0.452-0.195 0.452-0.435v-2.429h7.771c0.507 0 0.918 0.396 0.918 0.884v1.545c-0 0.24 0.202 0.435 0.451 0.435z"></path>
<path d="M27.033 21.032h-3.655c-0.753 0-1.366 0.59-1.366 1.315v3.519c0 0.725 0.613 1.315 1.366 1.315h3.655c0.753 0 1.366-0.59 1.366-1.315v-3.519c0-0.725-0.613-1.315-1.366-1.315zM27.494 25.866c0 0.245-0.207 0.444-0.461 0.444h-3.655c-0.254 0-0.461-0.199-0.461-0.444v-3.519c0-0.245 0.207-0.444 0.461-0.444h3.655c0.254 0 0.461 0.199 0.461 0.444v3.519z"></path>
<path d="M13.783 21.032c-0.753 0-1.366 0.59-1.366 1.315v3.519c0 0.725 0.613 1.315 1.366 1.315h3.655c0.753 0 1.366-0.59 1.366-1.315v-3.519c0-0.725-0.613-1.315-1.366-1.315h-3.655zM17.9 22.347v3.519c0 0.245-0.207 0.444-0.461 0.444h-3.656c-0.255 0-0.461-0.199-0.461-0.444v-3.519c0-0.245 0.207-0.444 0.461-0.444h3.655c0.254 0 0.462 0.198 0.462 0.444z"></path>
<path d="M4.19 27.181h3.655c0.753 0 1.366-0.59 1.366-1.315v-3.519c0-0.725-0.613-1.315-1.366-1.315h-3.655c-0.753 0-1.366 0.59-1.366 1.315v3.519c0 0.726 0.613 1.315 1.366 1.315zM3.728 22.347c0-0.245 0.207-0.444 0.461-0.444h3.655c0.255 0 0.461 0.199 0.461 0.444v3.519c0 0.245-0.207 0.444-0.461 0.444h-3.655c-0.255 0-0.461-0.199-0.461-0.444v-3.519z"></path>
</symbol>
<symbol id="icon-no_1" viewBox="0 0 32 32">
<title>no_1</title>
<path d="M16 1.882c7.797 0 14.118 6.321 14.118 14.118s-6.321 14.118-14.118 14.118c-7.797 0-14.118-6.321-14.118-14.118s6.321-14.118 14.118-14.118zM16 2.824c-7.277 0-13.176 5.899-13.176 13.176s5.899 13.176 13.176 13.176c7.277 0 13.176-5.899 13.176-13.176s-5.899-13.176-13.176-13.176z"></path>
<path d="M19.727 21.639v-1.225h-2.51v-10.060h-1.384c-0.026 0.066-0.152 0.198-0.376 0.395s-0.497 0.408-0.82 0.632c-0.323 0.224-0.665 0.422-1.028 0.593s-0.695 0.257-0.998 0.257v0 1.304c0.25 0 0.54-0.053 0.87-0.158s0.649-0.237 0.959-0.395c0.31-0.158 0.593-0.329 0.85-0.514s0.438-0.356 0.544-0.514v0 8.459h-2.807v1.225h6.7z"></path>
</symbol>
<symbol id="icon-no_2" viewBox="0 0 32 32">
<title>no_2</title>
<path d="M16 1.882c7.797 0 14.118 6.321 14.118 14.118s-6.321 14.118-14.118 14.118c-7.797 0-14.118-6.321-14.118-14.118s6.321-14.118 14.118-14.118zM16 2.824c-7.277 0-13.176 5.899-13.176 13.176s5.899 13.176 13.176 13.176c7.277 0 13.176-5.899 13.176-13.176s-5.899-13.176-13.176-13.176zM15.721 10.353c0.606 0 1.146 0.082 1.621 0.247s0.876 0.392 1.206 0.682c0.329 0.29 0.58 0.623 0.751 0.998s0.257 0.768 0.257 1.176c0 0.54-0.119 1.008-0.356 1.403s-0.53 0.738-0.88 1.028c-0.349 0.29-0.721 0.537-1.117 0.741s-0.751 0.379-1.067 0.524c-0.422 0.184-0.833 0.392-1.235 0.623s-0.761 0.484-1.077 0.761c-0.316 0.277-0.576 0.586-0.781 0.929s-0.306 0.725-0.306 1.146v0h7.036v1.225h-8.479l0.007-0.337c0.015-0.337 0.052-0.676 0.111-1.017 0.079-0.455 0.234-0.906 0.464-1.354s0.56-0.88 0.988-1.295c0.428-0.415 0.998-0.807 1.71-1.176 0.382-0.198 0.781-0.392 1.196-0.583s0.797-0.405 1.146-0.642c0.349-0.237 0.636-0.504 0.86-0.8s0.336-0.642 0.336-1.038c0-0.25-0.056-0.497-0.168-0.741s-0.277-0.461-0.494-0.652c-0.217-0.191-0.488-0.346-0.81-0.464s-0.702-0.178-1.136-0.178c-0.435 0-0.824 0.063-1.166 0.188s-0.642 0.273-0.899 0.445c-0.257 0.171-0.478 0.352-0.662 0.544s-0.323 0.346-0.415 0.464v0l-0.889-0.968 0.046-0.045c0.086-0.084 0.222-0.214 0.409-0.39 0.224-0.211 0.517-0.422 0.88-0.632s0.787-0.399 1.275-0.563c0.488-0.165 1.034-0.247 1.64-0.247z"></path>
</symbol>
<symbol id="icon-no_3" viewBox="0 0 32 32">
<title>no_3</title>
<path d="M16 1.882c7.797 0 14.118 6.321 14.118 14.118s-6.321 14.118-14.118 14.118c-7.797 0-14.118-6.321-14.118-14.118s6.321-14.118 14.118-14.118zM16 2.824c-7.277 0-13.176 5.899-13.176 13.176s5.899 13.176 13.176 13.176c7.277 0 13.176-5.899 13.176-13.176s-5.899-13.176-13.176-13.176zM15.781 8.941c0.606 0 1.163 0.086 1.67 0.257s0.945 0.412 1.314 0.721c0.369 0.31 0.656 0.682 0.86 1.117s0.306 0.916 0.306 1.443c0 0.395-0.059 0.774-0.178 1.136s-0.29 0.685-0.514 0.968c-0.224 0.283-0.497 0.52-0.82 0.712s-0.688 0.313-1.097 0.366c0.87 0.145 1.565 0.54 2.085 1.186s0.781 1.443 0.781 2.392c0 0.593-0.109 1.136-0.326 1.631s-0.527 0.916-0.929 1.265c-0.402 0.349-0.883 0.619-1.443 0.81s-1.183 0.287-1.868 0.287c-1.001 0-1.878-0.201-2.629-0.603s-1.318-0.959-1.7-1.67v0l0.929-0.85 0.098 0.189c0.275 0.492 0.664 0.89 1.167 1.195 0.567 0.343 1.278 0.514 2.135 0.514 0.988 0 1.766-0.24 2.332-0.721s0.85-1.169 0.85-2.065c0-0.909-0.296-1.627-0.889-2.154s-1.449-0.791-2.569-0.791v0h-0.494v-1.146h0.534l0.249-0.005c0.894-0.036 1.588-0.268 2.084-0.697 0.54-0.468 0.81-1.077 0.81-1.828 0-0.395-0.072-0.744-0.217-1.048s-0.346-0.557-0.603-0.761c-0.257-0.204-0.56-0.359-0.909-0.464s-0.728-0.158-1.136-0.158c-0.751 0-1.413 0.168-1.986 0.504s-1.005 0.8-1.295 1.393v0l-0.87-0.83 0.103-0.202c0.148-0.265 0.337-0.51 0.569-0.737 0.29-0.283 0.619-0.524 0.988-0.721s0.777-0.352 1.225-0.464c0.448-0.112 0.909-0.168 1.384-0.168z"></path>
</symbol>
<symbol id="icon-no_4" viewBox="0 0 32 32">
<title>no_4</title>
<path d="M16 1.882c7.797 0 14.118 6.321 14.118 14.118s-6.321 14.118-14.118 14.118c-7.797 0-14.118-6.321-14.118-14.118s6.321-14.118 14.118-14.118zM16 2.824c-7.277 0-13.176 5.899-13.176 13.176s5.899 13.176 13.176 13.176c7.277 0 13.176-5.899 13.176-13.176s-5.899-13.176-13.176-13.176zM17.996 9.412v9.052h1.739v1.225h-1.739v3.518h-1.344v-3.518h-6.582v-1.186l7.016-9.092h0.909zM16.791 11.527l-5.297 6.937h5.297v-6.937z"></path>
</symbol>
<symbol id="icon-no_5" viewBox="0 0 32 32">
<title>no_5</title>
<path d="M16 1.882c7.797 0 14.118 6.321 14.118 14.118s-6.321 14.118-14.118 14.118c-7.797 0-14.118-6.321-14.118-14.118s6.321-14.118 14.118-14.118zM16 2.824c-7.277 0-13.176 5.899-13.176 13.176s5.899 13.176 13.176 13.176c7.277 0 13.176-5.899 13.176-13.176s-5.899-13.176-13.176-13.176zM20.152 8.95v1.245h-5.771l-0.968 5.040 0.151-0.153c0.312-0.296 0.68-0.532 1.104-0.707 0.494-0.204 1.038-0.306 1.631-0.306 0.646 0 1.245 0.109 1.799 0.326s1.038 0.524 1.453 0.919c0.415 0.395 0.741 0.866 0.978 1.413s0.356 1.15 0.356 1.808c0 0.698-0.128 1.334-0.385 1.907s-0.606 1.061-1.048 1.463c-0.441 0.402-0.959 0.715-1.552 0.939s-1.225 0.336-1.897 0.336c-0.501 0-0.978-0.063-1.433-0.188s-0.873-0.306-1.255-0.544c-0.382-0.237-0.728-0.52-1.038-0.85s-0.563-0.698-0.761-1.107v0l0.889-0.672 0.145 0.236c0.352 0.538 0.808 0.979 1.367 1.325 0.639 0.395 1.341 0.593 2.105 0.593 0.488 0 0.942-0.082 1.364-0.247s0.791-0.399 1.107-0.702c0.316-0.303 0.563-0.665 0.741-1.087s0.267-0.883 0.267-1.384c0-0.488-0.086-0.932-0.257-1.334s-0.408-0.748-0.712-1.038c-0.303-0.29-0.659-0.514-1.067-0.672s-0.85-0.237-1.324-0.237c-0.619 0-1.202 0.135-1.749 0.405s-0.992 0.662-1.334 1.176v0h-1.245l0.008-0.048c0.016-0.093 0.047-0.255 0.091-0.486 0.053-0.277 0.119-0.606 0.198-0.988s0.165-0.807 0.257-1.275c0.092-0.468 0.184-0.939 0.277-1.413 0.224-1.107 0.468-2.339 0.731-3.696v0h6.779z"></path>
</symbol>
<symbol id="icon-persona" viewBox="0 0 32 32">
<title>persona</title>
<path d="M25.339 2.824h-18.301c-0.646 0-1.171 0.537-1.171 1.198v23.957c0 0.661 0.525 1.198 1.171 1.198h18.301c0.646 0 1.171-0.537 1.171-1.198v-23.957c0-0.661-0.525-1.198-1.171-1.198zM25.631 27.979c0 0.165-0.131 0.299-0.293 0.299h-18.301c-0.161 0-0.293-0.134-0.293-0.299v-23.957c0-0.165 0.131-0.299 0.293-0.299h18.301c0.162 0 0.293 0.134 0.293 0.299v23.957z"></path>
<path d="M22.776 5.818h-13.176c-0.646 0-1.171 0.537-1.171 1.198v17.968c0 0.661 0.525 1.198 1.171 1.198h13.176c0.646 0 1.171-0.537 1.171-1.198v-17.968c0-0.661-0.525-1.198-1.171-1.198zM23.069 24.984c0 0.165-0.131 0.299-0.293 0.299h-13.176c-0.161 0-0.293-0.134-0.293-0.299v-17.968c0-0.165 0.131-0.299 0.293-0.299h13.176c0.162 0 0.293 0.134 0.293 0.299v17.968z"></path>
<path d="M16.188 11.059c-1.857 0-3.367 1.713-3.367 3.818 0 2.112 1.471 4.567 3.367 4.567s3.367-2.455 3.367-4.567c0-2.105-1.511-3.818-3.367-3.818zM16.188 18.545c-1.341 0-2.489-2.017-2.489-3.668 0-1.61 1.117-2.92 2.489-2.92s2.489 1.31 2.489 2.92c0 1.652-1.148 3.668-2.489 3.668z"></path>
<path d="M13.040 18.658c-1.941 1.149-3.147 3.286-3.147 5.577 0 0.248 0.196 0.449 0.439 0.449s0.439-0.201 0.439-0.449c0-1.972 1.038-3.811 2.709-4.8 0.21-0.124 0.282-0.399 0.16-0.614s-0.39-0.289-0.6-0.164z"></path>
<path d="M19.336 18.658c-0.21-0.124-0.479-0.051-0.6 0.164s-0.049 0.49 0.16 0.614c1.671 0.988 2.709 2.827 2.709 4.799 0 0.248 0.197 0.449 0.439 0.449s0.439-0.201 0.439-0.449c0-2.291-1.206-4.428-3.147-5.577z"></path>
</symbol>
<symbol id="icon-user_interview" viewBox="0 0 32 32">
<title>user_interview</title>
<path d="M4.794 12.566c0.001-0.959 0.567-1.829 1.447-2.225 0.038 0.029 0.084 0.050 0.122 0.075s0.135 0.084 0.207 0.121l0.181 0.084c0.386 0.178 0.806 0.272 1.232 0.276 0.426-0.004 0.846-0.099 1.232-0.276l0.181-0.084c0.072-0.038 0.139-0.079 0.207-0.121s0.084-0.046 0.122-0.075c0.88 0.397 1.446 1.267 1.447 2.225v2.414h0.844v-2.414c0.003-1.174-0.63-2.258-1.658-2.84 0.408-0.519 0.629-1.158 0.629-1.815 0-1.645-1.345-2.978-3.004-2.978s-3.004 1.333-3.004 2.978c-0.002 0.658 0.219 1.297 0.629 1.815-1.024 0.581-1.657 1.662-1.658 2.832v2.414h0.844v-2.405zM7.984 5.777c0.903 0.001 1.71 0.559 2.022 1.4s0.062 1.784-0.625 2.365c-0.598 0.487-1.41 0.629-2.139 0.372-0.12-0.041-0.236-0.093-0.346-0.155v0c-0.105-0.058-0.204-0.127-0.295-0.205-0.688-0.581-0.938-1.526-0.625-2.367s1.122-1.399 2.025-1.398l-0.017-0.013z"></path>
<path d="M26.126 5.124h-10.126c-1.074-0.007-1.983 0.787-2.11 1.845l-1.915 1.142c-0.128 0.075-0.207 0.212-0.207 0.36s0.079 0.284 0.207 0.36l1.915 1.142c0.127 1.058 1.035 1.852 2.11 1.845h6.75v-0.837h-6.75c-0.699 0-1.266-0.562-1.266-1.255-0-0.148-0.079-0.284-0.207-0.36l-1.506-0.895 1.506-0.895c0.128-0.075 0.207-0.212 0.207-0.36 0-0.693 0.567-1.255 1.266-1.255h10.126c0.699 0 1.266 0.562 1.266 1.255v2.51c0 0.693-0.567 1.255-1.266 1.255v0.837c0.559 0 1.096-0.22 1.492-0.613s0.618-0.924 0.618-1.479v-2.51c0-1.155-0.944-2.092-2.11-2.092z"></path>
<path d="M26.577 22.049c0.954-1.224 0.803-2.968-0.346-4.014s-2.915-1.046-4.064 0c-1.149 1.046-1.299 2.79-0.346 4.014-1.024 0.58-1.656 1.659-1.658 2.828v2.418h0.844v-2.418c0.002-0.959 0.57-1.827 1.451-2.221 0.038 0.029 0.084 0.046 0.122 0.071s0.135 0.084 0.203 0.121l0.186 0.088c0.387 0.176 0.806 0.269 1.232 0.272 0.426-0.003 0.846-0.097 1.232-0.276 0.062-0.024 0.123-0.052 0.181-0.084 0.067-0.038 0.139-0.075 0.207-0.121s0.080-0.042 0.118-0.071c0.881 0.394 1.449 1.263 1.451 2.221v2.418h0.844v-2.418c-0.002-1.169-0.634-2.248-1.658-2.828v0zM24.202 18.091c0.903 0.001 1.71 0.559 2.022 1.4s0.062 1.784-0.625 2.365c-0.599 0.486-1.409 0.627-2.139 0.372-0.241-0.083-0.464-0.209-0.658-0.372-0.688-0.581-0.938-1.526-0.625-2.367s1.122-1.399 2.025-1.398v0z"></path>
<path d="M20.405 20.601c-0-0.148-0.079-0.284-0.207-0.36l-1.92-1.142c-0.127-1.058-1.035-1.852-2.11-1.845h-10.126c-1.165 0-2.11 0.936-2.11 2.092v2.51c0 1.155 0.944 2.092 2.11 2.092h10.126c1.074 0.007 1.983-0.787 2.11-1.845l1.941-1.142c0.12-0.080 0.19-0.216 0.186-0.36zM17.654 21.496c-0.127 0.076-0.203 0.213-0.203 0.36 0 0.693-0.567 1.255-1.266 1.255h-10.126c-0.699 0-1.266-0.562-1.266-1.255v-2.51c0-0.693 0.567-1.255 1.266-1.255h10.126c0.699 0 1.266 0.562 1.266 1.255-0.001 0.147 0.076 0.283 0.203 0.36l1.506 0.895-1.506 0.895z"></path>
<path d="M24.122 9.307c0.408 0 0.738 0.328 0.738 0.732s-0.331 0.732-0.738 0.732c-0.233 0-0.422 0.187-0.422 0.418v1.15h0.844v-0.791c0.789-0.217 1.281-0.994 1.135-1.793s-0.884-1.354-1.7-1.281c-0.816 0.074-1.44 0.752-1.439 1.564h0.844c0.002-0.403 0.332-0.73 0.738-0.732v0z"></path>
<path d="M23.7 12.917h0.941v0.941h-0.941v-0.941z"></path>
<path d="M16 7.216h3.797v0.941h-3.797v-0.941z"></path>
<path d="M16 8.889h5.907v0.941h-5.907v-0.941z"></path>
<path d="M20.641 7.216h5.485v0.941h-5.485v-0.941z"></path>
<path d="M5.874 19.346h2.11v0.941h-2.11v-0.941z"></path>
<path d="M5.874 21.020h6.329v0.941h-6.329v-0.941z"></path>
<path d="M8.828 19.346h7.172v0.941h-7.172v-0.941z"></path>
<path d="M13.047 21.020h2.953v0.941h-2.953v-0.941z"></path>
</symbol>
<symbol id="icon-ut" viewBox="0 0 32 32">
<title>ut</title>
<path d="M26.165 18.376v-10.282c-0.003-0.685-0.467-1.281-1.129-1.452v-0.43c0-0.832-0.674-1.506-1.506-1.506h-17.318c-0.832 0-1.506 0.674-1.506 1.506v16.188c0 0.832 0.674 1.506 1.506 1.506h0.376c0 0.832 0.674 1.506 1.506 1.506h12.781c0.698 1.41 2.275 2.153 3.807 1.793s2.614-1.726 2.612-3.299v-3.012c-0.001-0.962-0.412-1.878-1.129-2.518zM25.412 8.094v1.506h-18.071v-1.506c0-0.416 0.337-0.753 0.753-0.753h16.565c0.416 0 0.753 0.337 0.753 0.753zM6.212 23.153c-0.416 0-0.753-0.337-0.753-0.753v-16.188c0-0.416 0.337-0.753 0.753-0.753h17.318c0.416 0 0.753 0.337 0.753 0.753v0.376h-16.188c-0.832 0-1.506 0.674-1.506 1.506v15.059h-0.376zM8.094 24.659c-0.416 0-0.753-0.337-0.753-0.753v-13.553h18.071v7.511c-0.467-0.235-0.983-0.357-1.506-0.358-1.87 0.002-3.386 1.518-3.388 3.388v3.012c0.001 0.253 0.030 0.506 0.087 0.753h-12.511zM26.541 23.906c0 1.455-1.18 2.635-2.635 2.635s-2.635-1.18-2.635-2.635v-0.614c0.332 0.168 0.568 0.479 0.64 0.843 0.096 0.476 0.364 0.901 0.753 1.192l0.059 0.045c0.703 0.523 1.666 0.523 2.369 0l0.059-0.044c0.388-0.291 0.655-0.716 0.75-1.192v0c0.072-0.364 0.308-0.675 0.64-0.843v0.614zM26.541 22.487c-0.704 0.203-1.236 0.781-1.379 1.499-0.059 0.295-0.225 0.557-0.466 0.738l-0.059 0.044c-0.435 0.323-1.030 0.323-1.465 0l-0.059-0.045c-0.24-0.18-0.406-0.443-0.465-0.737-0.143-0.718-0.674-1.297-1.378-1.499v-1.593c0-1.455 1.18-2.635 2.635-2.635s2.635 1.18 2.635 2.635v1.593z"></path>
<path d="M23.906 19.388c-0.624 0-1.129 0.506-1.129 1.129v1.129c0 0.624 0.506 1.129 1.129 1.129s1.129-0.506 1.129-1.129v-1.129c0-0.624-0.506-1.129-1.129-1.129v0zM24.282 21.647c0 0.208-0.169 0.376-0.376 0.376s-0.376-0.169-0.376-0.376v-1.129c0-0.208 0.169-0.376 0.376-0.376s0.376 0.169 0.376 0.376v1.129z"></path>
<path d="M8.847 18.259h7.529c0.208 0 0.376-0.169 0.376-0.376v-6.024c0-0.208-0.169-0.376-0.376-0.376h-7.529c-0.208 0-0.376 0.169-0.376 0.376v6.024c0 0.208 0.169 0.376 0.376 0.376zM9.224 12.235h6.776v5.271h-6.776v-5.271z"></path>
<path d="M15.010 14.521l-3.765-1.506c-0.116-0.046-0.247-0.032-0.351 0.038s-0.165 0.187-0.165 0.312v3.012c0 0.208 0.169 0.376 0.376 0.376 0.048 0 0.095-0.009 0.14-0.027l3.765-1.506c0.143-0.057 0.237-0.196 0.237-0.35s-0.094-0.293-0.237-0.35zM11.482 15.82v-1.9l2.375 0.95-2.375 0.95z"></path>
<path d="M17.882 13.634h6.4v0.941h-6.4v-0.941z"></path>
<path d="M17.882 16h4.518v0.941h-4.518v-0.941z"></path>
<path d="M20.518 11.482h3.765v0.941h-3.765v-0.941z"></path>
<path d="M19.012 11.482h0.941v0.941h-0.941v-0.941z"></path>
<path d="M8.471 22.776h10.918v0.941h-10.918v-0.941z"></path>
<path d="M11.106 20.41h8.282v0.941h-8.282v-0.941z"></path>
<path d="M9.6 20.41h0.941v0.941h-0.941v-0.941z"></path>
<path d="M8.094 8.094h0.941v0.941h-0.941v-0.941z"></path>
<path d="M9.6 8.094h0.941v0.941h-0.941v-0.941z"></path>
<path d="M11.106 8.094h0.941v0.941h-0.941v-0.941z"></path>
</symbol>
</defs>
</svg>
