<?xml version="1.0" encoding="UTF-8"?>
<svg width="178px" height="72px" viewBox="0 0 178 72" version="1.1" xmlns="http://www.w3.org/2000/svg" xmlns:xlink="http://www.w3.org/1999/xlink">
    <!-- Generator: Sketch 63.1 (92452) - https://sketch.com -->
    <title>Logo</title>
    <g id="Artboard-Copy-3" stroke="none" stroke-width="1" fill="none" fill-rule="evenodd">
        <path d="M12.3320008,54.088 C13.8680008,54.088 14.6360008,53.392 14.6360008,52 C14.6360008,51.184 14.6720008,50.032 14.7440008,48.544 C14.8160008,47.056 14.9120008,45.508 15.0320008,43.9 C15.1520008,42.292 15.2960008,40.756 15.4640008,39.292 C15.6320008,37.828 15.8120008,36.712 16.0040008,35.944 C16.9160008,34.6 17.9240008,33.088 19.0280008,31.408 C20.1320008,29.728 21.2480008,28.024 22.3760008,26.296 C23.5040008,24.568 24.6080008,22.852 25.6880008,21.148 C26.7680008,19.444 27.7160008,17.872 28.5320008,16.432 C28.7720008,15.904 28.8560008,15.304 28.7840008,14.632 C28.7120008,13.96 28.4840008,13.48 28.1000008,13.192 C27.6680008,12.808 27.1160008,12.664 26.4440008,12.76 C25.7720008,12.856 25.1240008,13.384 24.5000008,14.344 C22.8200008,17.08 21.0080008,19.96 19.0640008,22.984 C17.1200008,26.008 15.0680008,28.96 12.9080008,31.84 C12.4280008,30.976 11.8760008,29.932 11.2520008,28.708 C10.6280008,27.484 10.0040008,26.2 9.38000076,24.856 C8.75600076,23.512 8.15600076,22.192 7.58000076,20.896 C7.00400076,19.6 6.52400076,18.448 6.14000076,17.44 C5.75600076,16.912 5.31200076,16.588 4.80800076,16.468 C4.30400076,16.348 3.78800076,16.312 3.26000076,16.36 C2.78000076,16.456 2.44400076,16.66 2.25200076,16.972 C2.06000076,17.284 1.95200076,17.656 1.92800076,18.088 C1.90400076,18.52 1.95200076,18.988 2.07200076,19.492 C2.19200076,19.996 2.34800076,20.464 2.54000076,20.896 C3.54800076,23.392 4.78400076,26.128 6.24800076,29.104 C7.71200076,32.08 9.28400076,35.104 10.9640008,38.176 C10.7240008,40.672 10.5320008,43.096 10.3880008,45.448 C10.2440008,47.8 10.1720008,49.984 10.1720008,52 C10.1720008,52.816 10.4000008,53.368 10.8560008,53.656 C11.3120008,53.944 11.8040008,54.088 12.3320008,54.088 Z M32.6840005,24.496 C33.3560005,24.832 33.9800005,24.904 34.5560005,24.712 C35.9480005,24.328 37.2800005,24.04 38.5520005,23.848 C39.8240005,23.656 41.0600005,23.536 42.2600005,23.488 C42.6440005,23.488 43.1240005,23.464 43.7000005,23.416 C44.2760005,23.368 44.6120005,23.104 44.7080005,22.624 C44.8040005,21.952 44.6240005,21.376 44.1680005,20.896 C43.7120005,20.416 43.1000005,20.056 42.3320005,19.816 C41.8040005,19.672 41.1320005,19.588 40.3160005,19.564 C39.5000005,19.54 38.6480005,19.576 37.7600005,19.672 C36.8720005,19.768 35.9960005,19.924 35.1320005,20.14 C34.2680005,20.356 33.5240005,20.608 32.9000005,20.896 C32.5160005,21.088 32.1800005,21.304 31.8920005,21.544 C31.6040005,21.784 31.4600005,22.096 31.4600005,22.48 C31.6040005,23.488 32.0120005,24.16 32.6840005,24.496 Z M40.6760005,50.848 C41.4440005,51.328 42.1640005,51.352 42.8360005,50.92 C43.3640005,50.584 43.6160005,49.972 43.5920005,49.084 C43.5680005,48.196 43.3880005,47.368 43.0520005,46.6 C42.7640005,45.976 42.5240005,45.172 42.3320005,44.188 C42.1400005,43.204 41.9720005,42.184 41.8280005,41.128 C41.6840005,40.072 41.5880005,39.016 41.5400005,37.96 C41.4920005,36.904 41.4680005,35.944 41.4680005,35.08 C41.5160005,33.976 41.2760005,33.052 40.7480005,32.308 C40.2200005,31.564 39.5240005,31.168 38.6600005,31.12 C38.1320005,31.216 37.7000005,31.552 37.3640005,32.128 C37.0280005,32.704 36.8360005,33.328 36.7880005,34 C36.7880005,34.624 36.8000005,35.56 36.8240005,36.808 C36.8480005,38.056 36.9320005,39.4 37.0760005,40.84 C37.2200005,42.28 37.4360005,43.732 37.7240005,45.196 C38.0120005,46.66 38.4200005,47.896 38.9480005,48.904 C39.3320005,49.72 39.9080005,50.368 40.6760005,50.848 Z M55.9520003,49.48 C57.2720003,49.672 58.6040003,49.66 59.9480003,49.444 C61.2920003,49.228 62.6240003,48.868 63.9440003,48.364 C65.2640003,47.86 66.5240003,47.272 67.7240003,46.6 C68.9240003,45.976 69.8840003,45.268 70.6040003,44.476 C71.3240003,43.684 71.4440003,42.904 70.9640003,42.136 C70.5800003,41.512 70.1000003,41.224 69.5240003,41.272 C68.9480003,41.32 68.3240003,41.488 67.6520003,41.776 C66.1160003,42.736 64.4720003,43.516 62.7200003,44.116 C60.9680003,44.716 59.3960003,44.992 58.0040003,44.944 C56.2760003,44.944 55.0040003,44.368 54.1880003,43.216 C53.3720003,42.064 53.0840003,40.648 53.3240003,38.968 C53.4680003,38.056 53.7320003,37.144 54.1160003,36.232 C54.5000003,35.32 54.9920003,34.492 55.5920003,33.748 C56.1920003,33.004 56.8880003,32.404 57.6800003,31.948 C58.4720003,31.492 59.3720003,31.264 60.3800003,31.264 C61.4840003,31.264 62.4200003,31.768 63.1880003,32.776 C63.5240003,33.304 63.9320003,33.604 64.4120003,33.676 C64.8920003,33.748 65.3000003,33.688 65.6360003,33.496 C66.0680003,33.256 66.3320003,32.932 66.4280003,32.524 C66.5240003,32.116 66.5240003,31.72 66.4280003,31.336 C65.9000003,29.608 64.8200003,28.42 63.1880003,27.772 C61.5560003,27.124 59.8520003,26.944 58.0760003,27.232 C56.9720003,27.424 55.9640003,27.796 55.0520003,28.348 C54.1400003,28.9 53.3120003,29.56 52.5680003,30.328 C51.8240003,31.096 51.1880003,31.948 50.6600003,32.884 C50.1320003,33.82 49.7240003,34.744 49.4360003,35.656 C48.7160003,38.104 48.5480003,40.48 48.9320003,42.784 C49.3160003,45.088 50.4200003,46.864 52.2440003,48.112 C53.3960003,48.832 54.6320003,49.288 55.9520003,49.48 Z M78.2840001,55.024 C78.6680001,55.024 79.0160001,54.868 79.3280001,54.556 C79.6400001,54.244 79.8920001,53.656 80.0840001,52.792 C80.2760001,51.64 80.5760001,50.128 80.9840001,48.256 C81.3920001,46.384 81.9200001,44.536 82.5680001,42.712 C83.2160001,40.888 83.9840001,39.256 84.8720001,37.816 C85.7600001,36.376 86.8040001,35.536 88.0040001,35.296 C88.7720001,35.152 89.4440001,35.368 90.0200001,35.944 C90.5960001,36.52 91.0880001,37.324 91.4960001,38.356 C91.9040001,39.388 92.2520001,40.552 92.5400001,41.848 C92.8280001,43.144 93.0680001,44.428 93.2600001,45.7 C93.4520001,46.972 93.6200001,48.16 93.7640001,49.264 C93.9080001,50.368 94.0520001,51.208 94.1960001,51.784 C94.4360001,52.504 94.8320001,53.116 95.3840001,53.62 C95.9360001,54.124 96.4040001,54.376 96.7880001,54.376 C97.3160001,54.376 97.7720001,54.136 98.1560001,53.656 C98.5400001,53.176 98.7320001,52.552 98.7320001,51.784 C98.6360001,50.728 98.5160001,49.468 98.3720001,48.004 C98.2280001,46.54 98.0000001,45.004 97.6880001,43.396 C97.3760001,41.788 96.9800001,40.204 96.5000001,38.644 C96.0200001,37.084 95.4320001,35.668 94.7360001,34.396 C94.0400001,33.124 93.2240001,32.104 92.2880001,31.336 C91.3520001,30.568 90.2840001,30.184 89.0840001,30.184 C87.9800001,30.184 86.9600001,30.4 86.0240001,30.832 C85.0880001,31.264 84.2000001,31.84 83.3600001,32.56 C82.5200001,33.28 81.7640001,34.108 81.0920001,35.044 C80.4200001,35.98 79.8440001,36.928 79.3640001,37.888 C79.3160001,36.4 79.2800001,34.84 79.2560001,33.208 C79.2320001,31.576 79.2080001,29.992 79.1840001,28.456 C79.1600001,26.92 79.1600001,25.432 79.1840001,23.992 C79.2080001,22.552 79.2200001,21.256 79.2200001,20.104 C79.2200001,19.24 79.0040001,18.436 78.5720001,17.692 C78.1400001,16.948 77.6360001,16.528 77.0600001,16.432 C75.3320001,16.192 74.4680001,17.272 74.4680001,19.672 C74.3720001,22.552 74.3240001,25.252 74.3240001,27.772 C74.3240001,30.292 74.3600001,32.752 74.4320001,35.152 C74.5040001,37.552 74.6120001,39.94 74.7560001,42.316 C74.9000001,44.692 75.0920001,47.176 75.3320001,49.768 C75.3800001,50.2 75.5000001,50.716 75.6920001,51.316 C75.8840001,51.916 76.1120001,52.492 76.3760001,53.044 C76.6400001,53.596 76.9280001,54.064 77.2400001,54.448 C77.5520001,54.832 77.9000001,55.024 78.2840001,55.024 Z M105.8,52.504 C107.024,53.32 108.404,53.608 109.94,53.368 C110.756,53.224 111.644,52.96 112.604,52.576 C113.564,52.192 114.524,51.748 115.484,51.244 C116.444,50.74 117.356,50.212 118.22,49.66 C119.084,49.108 119.852,48.592 120.524,48.112 C121.484,48.64 122.336,48.892 123.08,48.868 C123.824,48.844 124.34,48.4 124.628,47.536 C124.868,46.912 124.832,46.192 124.52,45.376 C124.208,44.56 123.284,43.624 121.748,42.568 C121.796,41.416 121.82,40.12 121.82,38.68 C121.82,37.24 121.784,35.752 121.712,34.216 C121.64,32.68 121.544,31.156 121.424,29.644 C121.304,28.132 121.148,26.704 120.956,25.36 C120.764,24.112 120.212,23.092 119.3,22.3 C118.388,21.508 117.092,21.136 115.412,21.184 C114.26,21.232 113.108,21.496 111.956,21.976 C110.804,22.456 109.676,23.068 108.572,23.812 C107.468,24.556 106.412,25.384 105.404,26.296 C104.396,27.208 103.484,28.096 102.668,28.96 C102.236,29.536 102.044,30.076 102.092,30.58 C102.14,31.084 102.356,31.528 102.74,31.912 C103.124,32.296 103.592,32.512 104.144,32.56 C104.696,32.608 105.188,32.416 105.62,31.984 C107.012,30.736 108.476,29.56 110.012,28.456 C111.548,27.352 112.892,26.608 114.044,26.224 C114.716,25.984 115.28,25.948 115.736,26.116 C116.192,26.284 116.468,26.728 116.564,27.448 C116.66,28.072 116.744,28.828 116.816,29.716 C116.888,30.604 116.948,31.552 116.996,32.56 C117.044,33.568 117.08,34.564 117.104,35.548 C117.128,36.532 117.14,37.432 117.14,38.248 C116.564,37.672 115.94,37.264 115.268,37.024 C114.596,36.784 113.936,36.652 113.288,36.628 C112.64,36.604 112.016,36.64 111.416,36.736 C110.816,36.832 110.348,36.952 110.012,37.096 C108.668,37.576 107.504,38.248 106.52,39.112 C105.536,39.976 104.756,40.948 104.18,42.028 C103.604,43.108 103.244,44.236 103.1,45.412 C102.956,46.588 103.028,47.728 103.316,48.832 C103.748,50.464 104.576,51.688 105.8,52.504 Z M109.148,48.616 C108.764,48.712 108.416,48.688 108.104,48.544 C107.792,48.4 107.588,48.184 107.492,47.896 C107.252,47.128 107.264,46.348 107.528,45.556 C107.792,44.764 108.2,44.044 108.752,43.396 C109.304,42.748 109.928,42.196 110.624,41.74 C111.32,41.284 111.98,40.984 112.604,40.84 C112.988,40.792 113.408,40.936 113.864,41.272 C114.32,41.608 114.74,42.004 115.124,42.46 C115.508,42.916 115.844,43.372 116.132,43.828 C116.42,44.284 116.564,44.656 116.564,44.944 C115.7,45.76 114.536,46.516 113.072,47.212 C111.608,47.908 110.3,48.376 109.148,48.616 Z M132.092,49.84 C132.62,50.032 133.136,50.068 133.64,49.948 C134.144,49.828 134.564,49.6 134.9,49.264 C135.38,48.208 135.896,47.044 136.448,45.772 C137,44.5 137.564,43.228 138.14,41.956 C138.716,40.684 139.304,39.436 139.904,38.212 C140.504,36.988 141.092,35.872 141.668,34.864 C142.34,33.616 143.108,32.968 143.972,32.92 C144.692,32.824 145.34,33.328 145.916,34.432 C146.492,35.536 147.008,36.832 147.464,38.32 C147.92,39.808 148.328,41.272 148.688,42.712 C149.048,44.152 149.348,45.16 149.588,45.736 C149.636,45.976 149.828,46.216 150.164,46.456 C150.5,46.696 151.004,46.648 151.676,46.312 C153.116,45.688 153.692,44.728 153.404,43.432 C153.116,41.992 152.756,40.336 152.324,38.464 C151.892,36.592 151.304,34.804 150.56,33.1 C149.816,31.396 148.904,29.968 147.824,28.816 C146.744,27.664 145.412,27.088 143.828,27.088 C142.772,27.088 141.8,27.472 140.912,28.24 C140.024,29.008 139.184,29.98 138.392,31.156 C137.6,32.332 136.868,33.616 136.196,35.008 C135.524,36.4 134.9,37.72 134.324,38.968 C134.228,38.104 134.108,37.192 133.964,36.232 C133.82,35.272 133.652,34.324 133.46,33.388 C133.268,32.452 133.088,31.54 132.92,30.652 C132.752,29.764 132.596,28.96 132.452,28.24 C132.068,26.416 131.036,25.36 129.356,25.072 C128.156,24.928 127.448,25.18 127.232,25.828 C127.016,26.476 127.076,27.352 127.412,28.456 C128.132,31.672 128.72,34.816 129.176,37.888 C129.632,40.96 130.076,44.368 130.508,48.112 C130.508,48.448 130.652,48.784 130.94,49.12 C131.228,49.456 131.612,49.696 132.092,49.84 Z M160.723999,71.728 C163.315999,71.632 165.643999,71.128 167.707999,70.216 C169.771999,69.304 171.499999,68.08 172.891999,66.544 C174.283999,65.008 175.279999,63.268 175.879999,61.324 C176.479999,59.38 176.635999,57.352 176.347999,55.24 C176.107999,53.704 175.831999,52.096 175.519999,50.416 C175.207999,48.736 174.871999,47.08 174.511999,45.448 C174.151999,43.816 173.791999,42.244 173.431999,40.732 C173.071999,39.22 172.747999,37.816 172.459999,36.52 C172.267999,35.704 171.991999,34.9 171.631999,34.108 C171.271999,33.316 170.899999,32.656 170.515999,32.128 C170.851999,31.792 171.019999,31.264 171.019999,30.544 C171.019999,29.824 170.755999,29.272 170.227999,28.888 C169.939999,28.696 169.591999,28.552 169.183999,28.456 C168.775999,28.36 168.355999,28.3 167.923999,28.276 C167.491999,28.252 167.071999,28.264 166.663999,28.312 C166.255999,28.36 165.931999,28.408 165.691999,28.456 C162.667999,29.704 160.471999,31.444 159.103999,33.676 C157.735999,35.908 157.003999,38.464 156.907999,41.344 C156.907999,42.544 157.063999,43.696 157.375999,44.8 C157.687999,45.904 158.107999,46.876 158.635999,47.716 C159.163999,48.556 159.775999,49.24 160.471999,49.768 C161.167999,50.296 161.923999,50.584 162.739999,50.632 C163.507999,50.68 164.263999,50.608 165.007999,50.416 C165.751999,50.224 166.435999,49.96 167.059999,49.624 C167.683999,49.288 168.247999,48.928 168.751999,48.544 C169.255999,48.16 169.675999,47.8 170.011999,47.464 C170.203999,48.04 170.431999,48.892 170.695999,50.02 C170.959999,51.148 171.175999,52.336 171.343999,53.584 C171.511999,54.832 171.595999,56.092 171.595999,57.364 C171.595999,58.636 171.427999,59.704 171.091999,60.568 C170.659999,61.672 170.047999,62.632 169.255999,63.448 C168.463999,64.264 167.587999,64.96 166.627999,65.536 C165.667999,66.112 164.647999,66.556 163.567999,66.868 C162.487999,67.18 161.443999,67.384 160.435999,67.48 C159.859999,67.576 159.295999,67.78 158.743999,68.092 C158.191999,68.404 157.939999,68.824 157.987999,69.352 C157.987999,69.88 158.299999,70.396 158.923999,70.9 C159.547999,71.404 160.147999,71.68 160.723999,71.728 Z M164.647999,45.304 C163.807999,45.544 163.099999,45.496 162.523999,45.16 C161.995999,44.872 161.683999,44.404 161.587999,43.756 C161.491999,43.108 161.443999,42.52 161.443999,41.992 C161.443999,40.84 161.623999,39.784 161.983999,38.824 C162.343999,37.864 162.787999,36.988 163.315999,36.196 C163.843999,35.404 164.431999,34.744 165.079999,34.216 C165.727999,33.688 166.339999,33.28 166.915999,32.992 C167.011999,33.952 167.203999,35.032 167.491999,36.232 C167.779999,37.432 168.043999,38.584 168.283999,39.688 C168.523999,40.792 168.535999,41.668 168.319999,42.316 C168.103999,42.964 167.659999,43.552 166.987999,44.08 C166.267999,44.656 165.487999,45.064 164.647999,45.304 Z" id="Yichang" fill="#212121" fill-rule="nonzero"></path>
    </g>
</svg>