<?xml version="1.0" encoding="UTF-8"?>
<svg width="56px" height="56px" viewBox="0 0 56 56" version="1.1" xmlns="http://www.w3.org/2000/svg" xmlns:xlink="http://www.w3.org/1999/xlink">
    <!-- Generator: Sketch 60.1 (88133) - https://sketch.com -->
    <title>logo</title>
    <desc>Created with Sketch.</desc>
    <g id="logo" stroke="none" stroke-width="1" fill="none" fill-rule="evenodd">
        <path d="M28.5902678,1.41099286 C30.3728195,-0.708807286 33.6327453,0.20456687 34.1237329,2.90594649 L34.1237329,2.90594649 L36.8455784,18.0523154 L50.3550443,24.0205015 C52.7782184,25.0887698 52.9187294,28.6424102 50.587819,30.0263019 L50.587819,30.0263019 L37.6183947,37.7333948 L36.1017053,53.1605197 C35.8257325,55.948573 32.6264395,57.2175864 30.7191691,55.3744034 L30.7191691,55.3744034 L19.9735164,44.9936735 L5.51973038,48.5663742 C2.95125708,49.2112483 0.812587411,46.4892149 1.95617665,43.935562 L1.95617665,43.935562 L8.29295764,29.8106615 L0.88303478,16.5977638 C-0.449324403,14.2241815 1.43460305,11.2174754 4.06288494,11.5139382 L4.06288494,11.5139382 L18.7220341,13.1559516 Z M54.3372676,10.9867974 C55.6644011,11.6686148 56.8957875,12.7035146 56.2813858,14.5483628 C56.0029486,15.3844187 54.8639961,16.4565487 52.7533941,16.6794253 L43.5225325,15.5253736 C48.6698086,12.490858 51.2434466,10.9736003 51.2434466,10.9736003 C51.2434466,10.9736003 53.010122,10.3050037 54.3372676,10.9867974 Z M47.5356288,2.75747311 C48.0551614,3.46698429 48.2729166,5.0226265 47.2433968,6.89367027 L41.0112049,13.8557678 C41.498227,7.86395765 41.741738,4.86805259 41.741738,4.86805259 C41.741738,4.86805259 42.2118729,3.0254132 43.5269833,2.32031013 C44.8421446,1.61530293 46.3892235,1.19185951 47.5356288,2.75747311 Z" id="Combined-Shape" fill="#EA2340" fill-rule="nonzero"></path>
    </g>
</svg>