<?xml version="1.0" encoding="UTF-8"?>
<svg width="139px" height="67px" viewBox="0 0 139 67" version="1.1" xmlns="http://www.w3.org/2000/svg" xmlns:xlink="http://www.w3.org/1999/xlink">
    <!-- Generator: Sketch 60.1 (88133) - https://sketch.com -->
    <title>Artboard Copy 3</title>
    <desc>Created with Sketch.</desc>
    <g id="Artboard-Copy-3" stroke="none" stroke-width="1" fill="none" fill-rule="evenodd">
        <g id="Group-2" transform="translate(0.000000, 1.000000)">
            <text id="YICHANG" font-family="Barlow-ExtraLight, Barlow" font-size="54" font-weight="300" fill="#333333">
                <tspan x="0" y="54">Y</tspan>
                <tspan x="29.376" y="54" font-family="Barlow-Regular, Barlow" font-size="32" font-weight="normal">ICHANG</tspan>
            </text>
            <path d="M38.0974297,11.5880572 C38.6315832,10.9580569 39.6084416,11.2295099 39.7555694,12.0323544 L39.7555694,12.0323544 L40.5711885,16.5338244 L44.6193898,18.3075572 C45.34551,18.6250444 45.3876151,19.6811791 44.6891423,20.0924689 L44.6891423,20.0924689 L40.802768,22.3830012 L40.3482819,26.9679113 C40.2655849,27.7965151 39.3068954,28.1736633 38.7353691,27.6258731 L38.7353691,27.6258731 L35.5153629,24.5407413 L31.1841897,25.6025406 C30.4145296,25.7941959 29.773663,24.9852131 30.1163471,24.2262727 L30.1163471,24.2262727 L32.0152057,20.028381 L29.794773,16.1015347 C29.3955227,15.3961108 29.9600541,14.5025239 30.7476363,14.590632 L30.7476363,14.590632 L35.1403479,15.0786351 Z M45.8126877,14.4339704 C46.2103739,14.6366016 46.579367,14.9441717 46.3952574,15.4924569 C46.3118219,15.740931 45.9705272,16.0595658 45.3380713,16.1258043 L42.5719822,15.7828225 C44.1143977,14.8809706 44.8856055,14.4300447 44.8856055,14.4300447 C44.8856055,14.4300447 45.4150015,14.2313391 45.8126877,14.4339704 Z M43.7745332,11.9882284 C43.9302146,12.1990937 43.9954664,12.6614274 43.6869639,13.2174978 L41.8194462,15.286619 C41.9653856,13.5058652 42.0383553,12.6154883 42.0383553,12.6154883 C42.0383553,12.6154883 42.1792343,12.0678597 42.5733235,11.8583187 C42.9674127,11.6487778 43.4310052,11.5229312 43.7745332,11.9882284 Z" id="Combined-Shape" fill="#EF8354" fill-rule="nonzero"></path>
        </g>
    </g>
</svg>